<svg width="236" height="151" viewBox="0 0 236 151" fill="none" xmlns="http://www.w3.org/2000/svg">
<path fill-rule="evenodd" clip-rule="evenodd" d="M0.0698242 75.5851C2.3407 79.4332 45.409 121.642 49.6375 123.281C56.8414 126.062 62.6362 121.49 63.6151 116.004C65.1031 107.852 50.8904 97.5664 41.8461 88.6901C37.8133 84.7281 32.0578 80.3093 29.787 75.547C34.5636 68.7664 48.0322 57.0708 54.7666 50.5566C58.0164 47.4328 64.7114 42.6709 64.4765 36.309C64.2416 29.8708 58.0945 25.2994 50.4989 27.3947C45.6439 28.7661 3.86767 70.0236 0.0698242 75.5851Z" fill="#F26651"/>
<path fill-rule="evenodd" clip-rule="evenodd" d="M206.096 75.5471C202.454 82.4427 188.673 93.6809 182.173 99.9665C178.689 103.319 171.602 107.814 172.111 114.785C172.62 121.528 179.158 126.252 186.519 123.281C189.534 122.062 232.837 79.4332 235.93 75.5089C232.289 69.376 190.708 28.8424 185.54 27.3567C178.023 25.1853 171.876 29.7948 171.484 36.3091C170.897 46.0996 194.389 60.7662 206.096 75.5471Z" fill="#F26651"/>
<g clip-path="url(#clip0)">
<path d="M79.1258 37.0563C79.2219 30.4449 84.6002 25.1064 91.2316 25.1064C95.7413 25.1064 99.6309 27.5998 101.72 31.2518C102.258 31.1992 102.806 31.1702 103.359 31.1702C112.303 31.1702 119.55 38.4199 119.55 47.3633H97.5619H87.1643H73.3104C73.3104 42.9895 75.6496 39.1888 79.1258 37.0563Z" fill="#D9F1FF"/>
<path d="M84.466 40.2368C84.5331 35.6654 88.2505 31.9771 92.8382 31.9771C95.9535 31.9771 98.6445 33.7015 100.084 36.2275C100.458 36.1894 100.837 36.1713 101.218 36.1713C107.401 36.1713 112.413 41.1797 112.413 47.3632H97.2101H90.0221H80.4477C80.4477 44.3385 82.067 41.711 84.466 40.2368Z" fill="#AEDCFF"/>
<path d="M119.587 48.7232C119.574 48.7214 119.561 48.7232 119.55 48.7232H73.3104C72.5597 48.7232 71.9504 48.1139 71.9504 47.3632C71.9504 42.9096 74.121 38.826 77.7948 36.2982C78.2807 29.3115 84.1578 23.7463 91.2298 23.7463C95.7286 23.7463 99.9501 26.0583 102.442 29.8337C102.744 29.8174 103.051 29.8101 103.357 29.8101C112.926 29.8101 120.731 37.5077 120.905 47.0368C120.93 47.142 120.943 47.2508 120.943 47.3632C120.947 48.1139 120.337 48.7232 119.587 48.7232ZM74.7574 46.0032H118.127C117.44 38.4597 111.077 32.5301 103.357 32.5301C102.848 32.5301 102.345 32.5555 101.85 32.6063C101.312 32.6589 100.802 32.3923 100.536 31.9281C98.6082 28.5607 95.0414 26.4682 91.2279 26.4682C85.3872 26.4682 80.5674 31.2282 80.4821 37.078C80.4749 37.544 80.2301 37.9738 79.833 38.2167C76.9987 39.9557 75.1636 42.8027 74.7574 46.0032Z" fill="#093260"/>
<path d="M126.675 127.652H109.095L112.023 108.627H123.745L126.675 127.652Z" fill="#C6621E"/>
<path d="M121.496 127.652H114.274L115.476 108.627H120.294L121.496 127.652Z" fill="#A0490E"/>
<path d="M139.695 47.3633C137.247 46.5237 134.918 44.6995 133.007 41.8417L117.888 14.3479L102.766 41.8417C100.855 44.6995 98.5266 46.5237 96.0786 47.3633H139.695V47.3633Z" fill="#0CAFAF"/>
<path d="M117.888 14.3479L102.766 41.8417C100.855 44.6995 98.5266 46.5237 96.0786 47.3633H117.886V14.3479H117.888Z" fill="#1BC1A9"/>
<path d="M142.284 66.969L131.5 47.3633H104.275L93.491 66.969C90.412 71.584 86.6529 74.5198 82.7089 75.8761H153.068C149.12 74.5198 145.363 71.584 142.284 66.969Z" fill="#1BC1A9"/>
<path d="M151.338 96.4121L140.043 75.8779H95.7286L84.4334 96.4121C80.2101 102.737 75.0566 106.768 69.6475 108.627H166.124C160.715 106.768 155.561 102.737 151.338 96.4121Z" fill="#1BC1A9"/>
<path d="M131.185 47.3633C129.692 46.5237 128.273 44.6995 127.107 41.8417L117.888 14.3479L108.663 41.8417C107.497 44.6995 106.077 46.5237 104.585 47.3633H131.185V47.3633Z" fill="#109BAD"/>
<path d="M108.663 41.8417C107.497 44.6995 106.077 46.5237 104.585 47.3633H117.888V14.3479L108.663 41.8417Z" fill="#0CAFAF"/>
<path d="M132.764 66.969L126.191 47.3633H109.584L103.007 66.969C101.131 71.584 98.8385 74.5198 96.4322 75.8761H139.345C136.935 74.5198 134.646 71.584 132.764 66.969Z" fill="#0CAFAF"/>
<path d="M142.284 66.969L131.5 47.3633H105.269L104.583 48.0505L132.411 75.8779H153.066C149.12 74.5198 145.363 71.584 142.284 66.969Z" fill="#0CAFAF"/>
<path d="M132.764 66.969L126.191 47.3633H109.584L108.157 51.6246L132.412 75.8779H139.345C136.935 74.5198 134.646 71.584 132.764 66.969Z" fill="#109BAD"/>
<path d="M138.288 96.4121L131.402 75.8779H104.371L97.4803 96.4121C94.9036 102.737 91.7647 106.768 88.4608 108.627H147.303C144.009 106.768 140.864 102.737 138.288 96.4121Z" fill="#0CAFAF"/>
<path d="M151.338 96.4121L140.043 75.8779H97.95L96.4304 77.3975L127.66 108.627H166.124C160.715 106.768 155.561 102.737 151.338 96.4121Z" fill="#0CAFAF"/>
<path d="M138.288 96.4121L131.402 75.8779H104.371L101.994 82.9644L127.66 108.627H147.305C144.009 106.768 140.864 102.737 138.288 96.4121Z" fill="#109BAD"/>
<path d="M139.695 48.7233H96.0786C95.4131 48.7233 94.8456 48.2427 94.7368 47.5881C94.6261 46.9317 95.0069 46.2934 95.638 46.0776C97.8956 45.3033 99.97 43.577 101.635 41.0873L116.694 13.6915C117.173 12.8229 118.6 12.8229 119.077 13.6915L134.199 41.1852C135.801 43.5752 137.876 45.3015 140.134 46.0758C140.763 46.2916 141.144 46.9299 141.035 47.5863C140.928 48.2427 140.36 48.7233 139.695 48.7233ZM100.953 46.0033H134.813C133.743 45.0549 132.757 43.9125 131.877 42.5978L117.888 17.1695L103.958 42.4963C103.045 43.8653 102.037 45.0368 100.953 46.0033Z" fill="#093260"/>
<path d="M153.066 77.236H82.7071C82.0416 77.236 81.4758 76.7555 81.3652 76.1009C81.2546 75.4463 81.6354 74.8062 82.2646 74.5904C86.0871 73.2757 89.5778 70.3798 92.3576 66.2146L103.082 46.7086C103.321 46.2734 103.778 46.0032 104.273 46.0032H131.498C131.993 46.0032 132.45 46.2734 132.69 46.7086L143.474 66.3143C146.194 70.3798 149.683 73.2757 153.507 74.5904C154.136 74.8062 154.517 75.4463 154.406 76.1009C154.296 76.7555 153.732 77.236 153.066 77.236ZM88.2033 74.516H147.563C145.182 72.8042 143.013 70.514 141.151 67.7233L130.693 48.7214H105.078L94.6823 67.6235C92.7802 70.4777 90.5951 72.7934 88.2033 74.516Z" fill="#093260"/>
<path d="M166.124 109.987H69.6475C68.982 109.987 68.4162 109.506 68.3056 108.852C68.195 108.197 68.5758 107.557 69.205 107.341C74.5507 105.504 79.425 101.464 83.3019 95.6579L94.5355 75.2235C94.7748 74.7883 95.2318 74.5181 95.7268 74.5181H140.041C140.536 74.5181 140.993 74.7883 141.232 75.2235L152.528 95.7576C156.343 101.464 161.219 105.504 166.565 107.341C167.194 107.557 167.575 108.197 167.464 108.852C167.354 109.506 166.79 109.987 166.124 109.987ZM75.5408 107.267H160.225C156.477 104.884 153.077 101.466 150.207 97.1666L139.24 77.2363H96.532L85.6248 97.0669C82.7125 101.437 79.2962 104.877 75.5408 107.267Z" fill="#093260"/>
<path d="M126.711 129.012C126.7 129.012 126.688 129.01 126.675 129.012H109.095C108.698 129.012 108.32 128.838 108.063 128.537C107.805 128.236 107.691 127.837 107.751 127.444L110.68 108.418C110.781 107.754 111.352 107.265 112.023 107.265H123.745C124.416 107.265 124.987 107.754 125.088 108.418L127.973 127.143C128.037 127.3 128.073 127.473 128.073 127.652C128.071 128.403 127.462 129.012 126.711 129.012ZM110.68 126.292H125.088L122.577 109.987H113.189L110.68 126.292Z" fill="#093260"/>
<path d="M135.234 129.012H100.536C99.7851 129.012 99.1758 128.403 99.1758 127.652C99.1758 126.902 99.7851 126.292 100.536 126.292H135.234C135.985 126.292 136.594 126.902 136.594 127.652C136.594 128.403 135.985 129.012 135.234 129.012Z" fill="#093260"/>
<path d="M115.922 116.366H111.04C110.29 116.366 109.68 115.757 109.68 115.006C109.68 114.255 110.29 113.646 111.04 113.646H115.922C116.673 113.646 117.282 114.255 117.282 115.006C117.282 115.757 116.674 116.366 115.922 116.366Z" fill="#093260"/>
<path d="M124.651 121.231H119.77C119.019 121.231 118.41 120.622 118.41 119.871C118.41 119.121 119.019 118.511 119.77 118.511H124.651C125.402 118.511 126.011 119.121 126.011 119.871C126.011 120.622 125.402 121.231 124.651 121.231Z" fill="#093260"/>
<path d="M114.981 124.405H110.099C109.349 124.405 108.739 123.795 108.739 123.045C108.739 122.294 109.349 121.685 110.099 121.685H114.981C115.732 121.685 116.341 122.294 116.341 123.045C116.341 123.795 115.732 124.405 114.981 124.405Z" fill="#093260"/>
<path d="M160.996 66.378C160.907 60.287 155.953 55.3711 149.842 55.3711C145.688 55.3711 142.103 57.6704 140.179 61.0341C139.684 60.9852 139.178 60.9562 138.668 60.9562C130.43 60.9562 123.75 67.6365 123.75 75.8781H144.009H153.588H166.353C166.353 71.847 164.198 68.3437 160.996 66.378Z" fill="#D9F1FF"/>
<path d="M156.075 69.3103C156.013 65.0997 152.588 61.6997 148.361 61.6997C145.49 61.6997 143.011 63.29 141.682 65.6165C141.339 65.5802 140.989 65.5639 140.639 65.5639C134.94 65.5639 130.325 70.1789 130.325 75.8782H144.333H150.956H159.777C159.777 73.0893 158.287 70.6703 156.075 69.3103Z" fill="#AEDCFF"/>
<path d="M166.353 77.2363H123.75C122.999 77.2363 122.39 76.627 122.39 75.8763C122.39 66.8984 129.692 59.5943 138.668 59.5943C138.933 59.5943 139.196 59.6016 139.459 59.6143C141.78 56.1363 145.682 54.0093 149.844 54.0093C156.399 54.0093 161.85 59.1519 162.325 65.6201C165.714 67.9719 167.714 71.7546 167.714 75.8763C167.713 76.6288 167.103 77.2363 166.353 77.2363ZM125.177 74.5163H164.898C164.498 71.6476 162.837 69.1035 160.285 67.5367C159.888 67.2938 159.643 66.8622 159.638 66.398C159.562 61.0686 155.166 56.7311 149.844 56.7311C146.368 56.7311 143.118 58.6387 141.361 61.7105C141.096 62.1747 140.578 62.4485 140.045 62.3887C139.593 62.3434 139.134 62.318 138.67 62.318C131.651 62.3162 125.861 67.6764 125.177 74.5163Z" fill="#093260"/>
</g>
<defs>
<clipPath id="clip0">
<rect width="117" height="117" fill="white" transform="translate(59 13)"/>
</clipPath>
</defs>
</svg>
